<svg xmlns="http://www.w3.org/2000/svg" width="632.695" height="62.148" viewBox="0 0 632.695 62.148">
  <path id="Path_1" data-name="Path 1" d="M23.984,1.055A47.81,47.81,0,0,1,12.246-.234a59.792,59.792,0,0,1-9.395-3.2V-17.266H4.18a32.671,32.671,0,0,0,9.648,5.7A28.878,28.878,0,0,0,24.063-9.57a26.194,26.194,0,0,0,3.3-.273,11.481,11.481,0,0,0,3.3-.859,7.275,7.275,0,0,0,2.578-1.855A4.569,4.569,0,0,0,34.3-15.7a4.331,4.331,0,0,0-1.719-3.555,10.965,10.965,0,0,0-4.1-1.992q-2.969-.781-6.348-1.484a50.961,50.961,0,0,1-6.309-1.719q-6.758-2.383-9.687-6.406A16.671,16.671,0,0,1,3.2-40.937,15.656,15.656,0,0,1,10.117-54.16q6.914-5.059,17.266-5.059a51.243,51.243,0,0,1,10.332,1.055,45.21,45.21,0,0,1,9.2,2.852v13.281H45.625a28.962,28.962,0,0,0-7.91-4.687,25.056,25.056,0,0,0-9.59-1.914,19.569,19.569,0,0,0-3.437.273,13.145,13.145,0,0,0-3.2,1.055,6.486,6.486,0,0,0-2.363,1.855,4.267,4.267,0,0,0-1,2.754,4.348,4.348,0,0,0,1.582,3.535q1.582,1.309,6.113,2.363,2.93.664,5.645,1.289a53.157,53.157,0,0,1,5.8,1.719q6.055,2.187,9,5.879t2.949,9.746A16.769,16.769,0,0,1,42.4-4.219Q35.586,1.055,23.984,1.055ZM72.7.859q-8.359,0-12.168-3.437t-3.809-11.25V-34.336H51.484v-9.531h5.234V-56.406H70.391v12.539H83.555v9.531H70.391v15.547q0,2.3.039,4.023a8.247,8.247,0,0,0,.625,3.086,4.327,4.327,0,0,0,1.934,2.168,8.218,8.218,0,0,0,4.043.8A11.851,11.851,0,0,0,79.9-9.18a11.952,11.952,0,0,0,2.48-.859h1.172V-.391a38.479,38.479,0,0,1-4.727.918A47.673,47.673,0,0,1,72.7.859ZM131.25-21.914q0,10.82-5.918,17.051t-16.738,6.23q-10.742,0-16.7-6.23T85.938-21.914q0-10.938,5.957-17.129t16.7-6.191q10.781,0,16.719,6.23T131.25-21.914Zm-14.023.078a27.571,27.571,0,0,0-.645-6.5A11.982,11.982,0,0,0,114.8-32.5a6.682,6.682,0,0,0-2.734-2.285,8.852,8.852,0,0,0-3.477-.645,9.252,9.252,0,0,0-3.32.566,6.457,6.457,0,0,0-2.734,2.168,11.786,11.786,0,0,0-1.875,4.18,26.639,26.639,0,0,0-.7,6.68,25.922,25.922,0,0,0,.664,6.5,12.374,12.374,0,0,0,1.719,3.965,6.457,6.457,0,0,0,2.734,2.227,9.129,9.129,0,0,0,3.633.7,8.694,8.694,0,0,0,3.34-.7,6.184,6.184,0,0,0,2.715-2.109,12.159,12.159,0,0,0,1.836-4.043A26.8,26.8,0,0,0,117.227-21.836Zm50.742-9.1h-1.133a10.023,10.023,0,0,0-2.266-.41q-1.484-.137-3.281-.137a17.648,17.648,0,0,0-4.512.625,43.926,43.926,0,0,0-4.59,1.484V0H138.516V-43.867h13.672v6.289q.938-.859,2.6-2.168a25.187,25.187,0,0,1,3.027-2.09,16.651,16.651,0,0,1,3.457-1.543,12.026,12.026,0,0,1,3.73-.645q.664,0,1.484.039t1.484.117Zm27.7,32.109q-12.422,0-19.043-5.937T170-21.68q0-10.742,6.172-17.148t17.266-6.406q10.078,0,15.156,5.43t5.078,15.547v4.922H183.711a12.474,12.474,0,0,0,1.289,5.1,8.9,8.9,0,0,0,2.891,3.262,11.66,11.66,0,0,0,4.1,1.738,23.311,23.311,0,0,0,5.117.527,20.949,20.949,0,0,0,4.688-.527,22.577,22.577,0,0,0,4.219-1.387,27.691,27.691,0,0,0,3.105-1.6q1.426-.859,2.324-1.523h1.445V-2.461q-1.68.664-3.066,1.23a27.76,27.76,0,0,1-3.809,1.152,39.753,39.753,0,0,1-4.59.918A42.31,42.31,0,0,1,195.664,1.172Zm4.531-28.75q-.117-4.336-2.012-6.6t-5.8-2.266a8.148,8.148,0,0,0-6.23,2.383,9.942,9.942,0,0,0-2.48,6.484ZM244.922,0V-58.164h39.336V-47.07h-24.8v10.2H282.3v11.094H259.453v14.688h24.8V0Zm62.109,0H293.359V-60.781h13.672Zm32.93,1.172q-12.422,0-19.043-5.937T314.3-21.68q0-10.742,6.172-17.148t17.266-6.406q10.078,0,15.156,5.43t5.078,15.547v4.922H328.008a12.475,12.475,0,0,0,1.289,5.1,8.9,8.9,0,0,0,2.891,3.262,11.66,11.66,0,0,0,4.1,1.738,23.311,23.311,0,0,0,5.117.527,20.949,20.949,0,0,0,4.688-.527,22.577,22.577,0,0,0,4.219-1.387,27.693,27.693,0,0,0,3.105-1.6q1.426-.859,2.324-1.523h1.445V-2.461q-1.68.664-3.066,1.23a27.758,27.758,0,0,1-3.809,1.152,39.752,39.752,0,0,1-4.59.918A42.31,42.31,0,0,1,339.961,1.172Zm4.531-28.75q-.117-4.336-2.012-6.6t-5.8-2.266a8.148,8.148,0,0,0-6.23,2.383,9.942,9.942,0,0,0-2.48,6.484Zm42.031,28.75A34.173,34.173,0,0,1,376.582-.2a21.365,21.365,0,0,1-7.832-4.219,19.375,19.375,0,0,1-5.117-7.168A25.868,25.868,0,0,1,361.8-21.758a25.92,25.92,0,0,1,1.992-10.7,20.11,20.11,0,0,1,5.391-7.266,21.316,21.316,0,0,1,7.715-4.043,32.464,32.464,0,0,1,9.238-1.309,32.163,32.163,0,0,1,7.266.84,32.919,32.919,0,0,1,7.3,2.676v11.719h-1.758q-.82-.781-2.012-1.719a19.52,19.52,0,0,0-2.6-1.719,17.236,17.236,0,0,0-3.359-1.387,14.424,14.424,0,0,0-4.18-.566,9.715,9.715,0,0,0-8.105,3.652q-2.871,3.652-2.871,9.824,0,6.6,3.066,9.844a10.685,10.685,0,0,0,8.145,3.242,15.812,15.812,0,0,0,4.531-.586,15.52,15.52,0,0,0,3.359-1.406,15.14,15.14,0,0,0,2.344-1.7q.977-.879,1.68-1.582H400.7V-2.227q-1.172.508-2.715,1.172A23.063,23.063,0,0,1,394.844.039a38.054,38.054,0,0,1-3.73.84A28.749,28.749,0,0,1,386.523,1.172ZM423.984.859q-8.359,0-12.168-3.437t-3.809-11.25V-34.336h-5.234v-9.531h5.234V-56.406H421.68v12.539h13.164v9.531H421.68v15.547q0,2.3.039,4.023a8.247,8.247,0,0,0,.625,3.086,4.327,4.327,0,0,0,1.934,2.168,8.218,8.218,0,0,0,4.043.8,11.851,11.851,0,0,0,2.871-.469,11.951,11.951,0,0,0,2.48-.859h1.172V-.391a38.479,38.479,0,0,1-4.727.918A47.673,47.673,0,0,1,423.984.859Zm45.9-31.8H468.75a10.023,10.023,0,0,0-2.266-.41q-1.484-.137-3.281-.137a17.648,17.648,0,0,0-4.512.625,43.924,43.924,0,0,0-4.59,1.484V0H440.43V-43.867H454.1v6.289q.938-.859,2.6-2.168a25.187,25.187,0,0,1,3.027-2.09,16.652,16.652,0,0,1,3.457-1.543,12.026,12.026,0,0,1,3.73-.645q.664,0,1.484.039t1.484.117Zm47.344,9.023q0,10.82-5.918,17.051T494.57,1.367q-10.742,0-16.7-6.23t-5.957-17.051q0-10.938,5.957-17.129t16.7-6.191q10.781,0,16.719,6.23T517.227-21.914Zm-14.023.078a27.571,27.571,0,0,0-.645-6.5,11.982,11.982,0,0,0-1.777-4.16,6.682,6.682,0,0,0-2.734-2.285,8.852,8.852,0,0,0-3.477-.645,9.252,9.252,0,0,0-3.32.566,6.457,6.457,0,0,0-2.734,2.168,11.786,11.786,0,0,0-1.875,4.18,26.639,26.639,0,0,0-.7,6.68,25.921,25.921,0,0,0,.664,6.5,12.375,12.375,0,0,0,1.719,3.965,6.456,6.456,0,0,0,2.734,2.227,9.129,9.129,0,0,0,3.633.7,8.694,8.694,0,0,0,3.34-.7,6.184,6.184,0,0,0,2.715-2.109,12.159,12.159,0,0,0,1.836-4.043A26.8,26.8,0,0,0,503.2-21.836ZM565.586,0h-13.75V-21.758q0-2.656-.215-5.293a12.005,12.005,0,0,0-.8-3.887,4.32,4.32,0,0,0-2.031-2.129,8.222,8.222,0,0,0-3.555-.645,9.9,9.9,0,0,0-3.4.625,16.137,16.137,0,0,0-3.672,1.992V0H524.492V-43.867h13.672v4.844a33.538,33.538,0,0,1,6.543-4.453,15.465,15.465,0,0,1,7.051-1.6q6.719,0,10.273,4.238t3.555,12.285Zm23.789,0H575.7V-43.867h13.672Zm.391-50.117H575.313V-60.781h14.453Zm31.6,51.289A34.173,34.173,0,0,1,611.426-.2a21.366,21.366,0,0,1-7.832-4.219,19.375,19.375,0,0,1-5.117-7.168,25.869,25.869,0,0,1-1.836-10.176,25.92,25.92,0,0,1,1.992-10.7,20.11,20.11,0,0,1,5.391-7.266,21.315,21.315,0,0,1,7.715-4.043,32.464,32.464,0,0,1,9.238-1.309,32.163,32.163,0,0,1,7.266.84,32.919,32.919,0,0,1,7.3,2.676v11.719h-1.758q-.82-.781-2.012-1.719a19.518,19.518,0,0,0-2.6-1.719,17.235,17.235,0,0,0-3.359-1.387,14.424,14.424,0,0,0-4.18-.566,9.715,9.715,0,0,0-8.105,3.652q-2.871,3.652-2.871,9.824,0,6.6,3.066,9.844a10.685,10.685,0,0,0,8.145,3.242,15.812,15.812,0,0,0,4.531-.586,15.521,15.521,0,0,0,3.359-1.406,15.143,15.143,0,0,0,2.344-1.7q.977-.879,1.68-1.582h1.758V-2.227q-1.172.508-2.715,1.172A23.063,23.063,0,0,1,629.688.039a38.052,38.052,0,0,1-3.73.84A28.749,28.749,0,0,1,621.367,1.172Z" transform="translate(-2.852 60.781)" fill="#6894c1"/>
</svg>
