<?xml version="1.0" encoding="UTF-8"?>
<svg id="Layer_1" data-name="Layer 1" xmlns="http://www.w3.org/2000/svg" version="1.1" viewBox="0 0 800 800">
  <defs>
    <style>
      .cls-1 {
        fill: #263238;
        stroke-width: 0px;
      }
    </style>
  </defs>
  <g id="profile_person" data-name="profile, person">
    <path class="cls-1" d="M400,775c-206.8,0-375-168.2-375-375S193.2,25,400,25s375,168.2,375,375-168.2,375-375,375ZM400,50c-193,0-350,157-350,350s157,350,350,350,350-157,350-350S593,50,400,50Z"/>
    <g id="team">
      <path class="cls-1" d="M591,517.8l-119.1-41.3-8.1-64.6c-5.4,7.7-13.1,13.6-23.1,16.8l7.3,58.6c.6,4.7,3.8,8.7,8.3,10.2l126.4,43.9c22.5,7.8,42.2,35.7,42.2,59.5v-.2c0,6.9,5.6,12.5,12.5,12.5s12.5-5.6,12.5-12.4c0-34.5-26.5-71.7-59-83.1Z"/>
      <path class="cls-1" d="M400,451c-69.5,0-104.8-46.1-105-161.7,0-29.3,3.1-59.1,30.7-86.7,17.6-17.6,42.6-26.5,74.3-26.5s56.8,8.9,74.4,26.6c27.6,27.6,30.7,57.4,30.7,86.7-.3,115.6-35.6,161.7-105,161.7ZM400,201c-25.2,0-43.8,6.3-56.7,19.2-15.8,15.8-23.4,30-23.4,69,.2,100.5,26.4,136.8,80,136.8s79.8-36.3,80-136.8c0-39-7.6-53.2-23.4-69-12.9-12.9-31.4-19.2-56.6-19.2Z"/>
      <path class="cls-1" d="M215.1,516.9l122.2-41.3,8.3-64.6c5.5,7.7,13.4,13.6,23.7,16.8l-7.5,58.6c-.6,4.7-3.9,8.7-8.5,10.2l-129.7,43.9c-23.1,7.8-43.3,35.7-43.3,59.5v-.2c0,6.9-5.7,12.5-12.8,12.5s-12.8-5.6-12.8-12.4c0-34.5,27.2-71.7,60.5-83.1Z"/>
    </g>
  </g>
</svg>
